<svg width="64" height="48" viewBox="0 0 64 48" fill="none" xmlns="http://www.w3.org/2000/svg">
<path d="M62.7875 15.85C63.275 15.4625 64 15.825 64 16.4375V42C64 45.3125 61.3125 48 58 48H6C2.6875 48 0 45.3125 0 42V16.45C0 15.825 0.7125 15.475 1.2125 15.8625C4.0125 18.0375 7.725 20.8 20.475 30.0625C23.1125 31.9875 27.5625 36.0375 32 36.0125C36.4625 36.05 41 31.9125 43.5375 30.0625C56.2875 20.8 59.9875 18.025 62.7875 15.85ZM32 32C34.9 32.05 39.075 28.35 41.175 26.825C57.7625 14.7875 59.025 13.7375 62.85 10.7375C63.575 10.175 64 9.3 64 8.375V6C64 2.6875 61.3125 0 58 0H6C2.6875 0 0 2.6875 0 6V8.375C0 9.3 0.425 10.1625 1.15 10.7375C4.975 13.725 6.2375 14.7875 22.825 26.825C24.925 28.35 29.1 32.05 32 32Z" fill="black"/>
</svg>
