<svg width="64" height="64" viewBox="0 0 64 64" fill="none" xmlns="http://www.w3.org/2000/svg">
<g clip-path="url(#clip0_39_336)">
<path d="M62.1738 45.2248L48.1738 39.2248C47.5757 38.97 46.911 38.9163 46.2798 39.0718C45.6485 39.2274 45.0849 39.5838 44.6738 40.0873L38.4738 47.6623C28.7434 43.0746 20.9128 35.2439 16.325 25.5136L23.9 19.3136C24.4046 18.9032 24.7617 18.3396 24.9174 17.708C25.073 17.0765 25.0186 16.4115 24.7625 15.8136L18.7625 1.81359C18.4814 1.1691 17.9842 0.6429 17.3567 0.325716C16.7292 0.008533 16.0106 -0.079749 15.325 0.0760931L2.325 3.07609C1.66396 3.22874 1.07418 3.60094 0.651919 4.13195C0.229657 4.66295 -0.000152276 5.32141 7.57026e-08 5.99984C7.57026e-08 38.0623 25.9875 63.9998 58 63.9998C58.6787 64.0003 59.3374 63.7706 59.8687 63.3483C60.3999 62.926 60.7723 62.3361 60.925 61.6748L63.925 48.6748C64.0798 47.9859 63.9897 47.2645 63.6701 46.6348C63.3504 46.0051 62.8213 45.5065 62.1738 45.2248Z" fill="black"/>
</g>
<defs>
<clipPath id="clip0_39_336">
<rect width="64" height="64" fill="white"/>
</clipPath>
</defs>
</svg>
