<svg class="h-[32px]" width="72" height="48" viewBox="0 0 72 48" fill="none" xmlns="http://www.w3.org/2000/svg"> <g clip-path="url(#clip0_3273_110340)"> <path d="M68.2631 47.5C70.1961 47.5 71.7818 45.9008 71.7818 43.9516V4.03896C71.7818 2.09915 70.1961 0.5 68.2631 0.5H3.51872C1.58577 0.5 0 2.09915 0 4.03896V43.9516C0 45.9008 1.58577 47.5 3.51872 47.5H68.2631Z" fill="#0047BA"></path> <path d="M28.1405 24.8753H24.4341C23.3457 24.8753 21.9382 25.6513 21.5347 26.6827L21.9007 24.705H17.3686L15.3699 36.0789H19.902L21.1594 28.878H26.0387C26.0387 28.878 25.4194 32.4453 25.1379 34.0445C24.8658 35.6436 25.9355 36.0316 26.4703 36.0316H28.8443L30.3925 27.1842C30.2424 25.9162 29.3979 24.8753 28.1405 24.8753Z" fill="white"></path> <path d="M14.1125 24.705L13.2586 29.5877L16.7023 24.705H14.1125Z" fill="white"></path> <path d="M19.4887 6.88721H4.32541L3.66859 10.6533H8.96074L6.84013 22.803H11.4098L13.5304 10.6533H18.8319L19.4887 6.88721Z" fill="#FFCD00"></path> <path d="M22.6227 19.0747L23.2889 15.2708H19.2259L18.5597 19.0747H22.6227ZM16.2233 22.8029C14.966 22.8029 14.1215 21.762 14.3373 20.4941L15.5102 13.842C15.726 12.574 16.9364 11.5426 18.1938 11.5426H25.6253C26.8827 11.5426 27.7272 12.574 27.502 13.842L26.3384 20.4941C26.1132 21.762 24.9028 22.8029 23.6455 22.8029H16.2233Z" fill="#FFCD00"></path> <path d="M46.1373 19.0747L46.8035 15.2708H52.6868L53.3436 11.5426H45.7713C44.514 11.5426 43.3036 12.574 43.0784 13.842L41.9148 20.4941C41.699 21.762 42.5435 22.8029 43.8009 22.8029H51.1667L51.8142 19.0747H46.1373Z" fill="#FFCD00"></path> <path d="M36.8858 19.0747H31.9033L33.217 11.5426H29.2479L27.6809 20.4941C27.4557 21.762 28.3096 22.8029 29.5669 22.8029H33.4328C34.6902 22.8029 35.7129 22.0459 36.5293 21.0713C36.5293 21.0713 36.9703 22.3771 37.6083 22.6704C38.2464 22.9638 40.1887 22.8975 40.1887 22.8975L42.178 11.5521H38.2089L36.8858 19.0747Z" fill="#FFCD00"></path> <path d="M65.5048 11.5995H61.7984C60.7099 11.5995 59.659 12.3754 59.2462 13.4068L60.3158 7.29407H56.1403L53.4285 22.803H57.6135L58.8708 15.6021H63.4029C63.4029 15.6021 62.7836 19.1694 62.5021 20.7686C62.2206 22.3583 63.2997 22.7463 63.8252 22.7463H65.8426L67.3908 13.8989C67.6066 12.6309 66.7621 11.5995 65.5048 11.5995Z" fill="#FFCD00"></path> <path d="M50.6226 39.8638C48.9336 39.8638 47.7888 38.4634 48.0891 36.7601L49.6561 27.8181C49.947 26.1149 51.5796 24.7144 53.278 24.7144H62.7363C64.4253 24.7144 65.57 26.1149 65.2698 27.8181L63.7122 36.7601C63.4119 38.4634 61.7886 39.8638 60.0902 39.8638H50.6226ZM59.4334 35.6814L60.6251 28.8968H53.9161L52.7244 35.6814H59.4334Z" fill="#FFCD00"></path> <path d="M41.4459 35.6814H34.7369L35.9286 28.8968H46.8037L47.5169 24.7144H35.2811C33.5921 24.7144 31.9595 26.1149 31.6686 27.8181L30.1016 36.7601C29.8107 38.4634 30.9461 39.8638 32.635 39.8638H42.0934C43.7823 39.8638 45.415 38.4634 45.7059 36.7601L46.663 31.2719H42.206L41.4459 35.6814Z" fill="#FFCD00"></path> </g> <defs> <clipPath id="clip0_3273_110340"> <rect width="71.7818" height="47" fill="white" transform="translate(0 0.5)"></rect> </clipPath> </defs> </svg>